<svg version="1" xmlns="http://www.w3.org/2000/svg" width="666.667" height="666.667" viewBox="0 0 500.000000 500.000000"><path d="M0 250v250h500V0H0v250zm46.1-111.1l2.4 1.9.5 67.4c.6 73.2.5 72.6 6.6 88C74.9 345.5 134.3 368 182 344c23.6-11.9 41.3-33.9 48.2-60.2 2.1-8 2.2-10.5 2.7-75.6l.6-67.4 2.4-1.9c3.8-3.1 7.8-2.5 11.8 1.8 1.9 2.1 25.4 31.5 52.1 65.3 26.8 33.8 49.6 62.5 50.7 63.7l2 2.2 34.5-43.6c19-24 42.3-53.4 51.8-65.4 11.4-14.4 18.1-22.1 19.7-22.5 3.1-.8 7.6 1.5 9.2 4.6 1 2 1.3 25.1 1.3 108.8 0 113 .1 110.8-4.5 112.6-2.1.8-5.9.8-7.9 0-4.1-1.6-4.1-1.4-4.6-99.3l-.5-94.4-8.5 10.9c-19.6 25.3-81.5 103.2-84.3 106.1-4 4.3-8.4 4.5-12.6.5-2.5-2.3-86.3-107.6-93.1-117-1.3-1.7-2.7-3.2-3.1-3.2-.5 0-1 25.1-1.1 55.7-.4 54.6-.4 56-2.7 63.8-8.7 30.6-29.2 55.7-56.6 69.3-17.5 8.7-32.5 11.8-53.8 10.9-16.1-.6-27.4-3.2-40.3-9.2-26.3-12.1-47.9-36-57-63-5.2-15.6-5.3-17.9-5.4-89.3v-66.3l2.5-2.4c2.9-3 7.4-3.2 10.6-.6z"/></svg>